<svg width="34" height="34" viewBox="0 0 34 34" fill="none" xmlns="http://www.w3.org/2000/svg">
<rect x="0.5" y="0.5" width="33" height="33" rx="16.5" fill="white"/>
<rect x="0.5" y="0.5" width="33" height="33" rx="16.5" stroke="#A6B0E7"/>
<g clip-path="url(#clip0_3753_16937)">
<path d="M26.6055 24.8494V24.8894H26.6428C26.6498 24.8895 26.6567 24.8877 26.6628 24.8843C26.6652 24.8826 26.6671 24.8803 26.6685 24.8776C26.6698 24.8749 26.6704 24.872 26.6703 24.869C26.6704 24.8661 26.6698 24.8632 26.6684 24.8606C26.6671 24.858 26.6652 24.8557 26.6628 24.8541C26.6567 24.8505 26.6498 24.8487 26.6428 24.849H26.6055V24.8494ZM26.6432 24.8211C26.6591 24.8201 26.675 24.8247 26.688 24.8341C26.6932 24.8383 26.6973 24.8438 26.7 24.8499C26.7027 24.8561 26.704 24.8628 26.7037 24.8695C26.7039 24.8753 26.7029 24.881 26.7007 24.8864C26.6985 24.8918 26.6953 24.8966 26.6911 24.9006C26.681 24.9093 26.6685 24.9145 26.6553 24.9155L26.7053 24.9725H26.6668L26.6208 24.9159H26.6059V24.9725H26.5737V24.8212H26.6437L26.6432 24.8211ZM26.6332 25.0247C26.65 25.0248 26.6668 25.0214 26.6823 25.0147C26.6972 25.0083 26.7108 24.9991 26.7223 24.9876C26.7338 24.9761 26.743 24.9625 26.7494 24.9476C26.7625 24.9159 26.7625 24.8803 26.7494 24.8486C26.7429 24.8337 26.7337 24.8201 26.7223 24.8086C26.7108 24.7971 26.6972 24.7879 26.6823 24.7815C26.6667 24.7751 26.65 24.7719 26.6332 24.7721C26.616 24.7719 26.5991 24.7751 26.5832 24.7815C26.5679 24.7878 26.554 24.797 26.5423 24.8086C26.5246 24.8267 26.5126 24.8497 26.5079 24.8746C26.5031 24.8995 26.5058 24.9252 26.5156 24.9486C26.5216 24.9636 26.5307 24.9772 26.5423 24.9886C26.554 25.0002 26.5679 25.0094 26.5832 25.0157C26.599 25.0224 26.616 25.0258 26.6332 25.0257M26.6332 24.7357C26.6771 24.7356 26.7193 24.7529 26.7507 24.7837C26.7658 24.7985 26.7778 24.8161 26.7861 24.8356C26.7946 24.8556 26.799 24.8771 26.799 24.8988C26.799 24.9206 26.7946 24.9421 26.7861 24.9621C26.7776 24.9815 26.7656 24.9991 26.7507 25.014C26.7353 25.0287 26.7175 25.0406 26.698 25.049C26.6775 25.0577 26.6554 25.0621 26.6332 25.062C26.6106 25.0621 26.5883 25.0577 26.5676 25.049C26.5478 25.0407 26.5298 25.0289 26.5145 25.014C26.4995 24.9985 26.4877 24.9803 26.4796 24.9604C26.471 24.9404 26.4666 24.9189 26.4666 24.8971C26.4666 24.8754 26.471 24.8539 26.4796 24.8339C26.4878 24.8144 26.4998 24.7968 26.515 24.782C26.5301 24.7668 26.5482 24.7549 26.5681 24.747C26.5888 24.7382 26.6111 24.7338 26.6337 24.734M11.3212 24.1514C11.3212 23.8629 11.5102 23.6259 11.8191 23.6259C12.1143 23.6259 12.3135 23.8527 12.3135 24.1514C12.3135 24.4501 12.1143 24.6769 11.8191 24.6769C11.5102 24.6769 11.3212 24.4399 11.3212 24.1514ZM12.65 24.1514V23.3304H12.2931V23.5304C12.1799 23.3826 12.0082 23.2899 11.7747 23.2899C11.3147 23.2899 10.9537 23.6507 10.9537 24.1518C10.9537 24.6529 11.3145 25.0137 11.7747 25.0137C12.0081 25.0137 12.1799 24.9209 12.2931 24.7732V24.9725H12.6496V24.1514H12.65ZM24.7092 24.1514C24.7092 23.8629 24.8982 23.6259 25.2072 23.6259C25.5027 23.6259 25.7016 23.8527 25.7016 24.1514C25.7016 24.4501 25.5027 24.6769 25.2072 24.6769C24.8983 24.6769 24.7092 24.4399 24.7092 24.1514ZM26.0384 24.1514V22.6714H25.6812V23.5304C25.568 23.3826 25.3963 23.2899 25.1628 23.2899C24.7028 23.2899 24.3418 23.6507 24.3418 24.1518C24.3418 24.6529 24.7026 25.0137 25.1628 25.0137C25.3963 25.0137 25.568 24.9209 25.6812 24.7732V24.9725H26.0384V24.1514ZM17.0796 23.609C17.3096 23.609 17.4573 23.7532 17.495 24.0071H16.6434C16.6815 23.7701 16.8254 23.609 17.0797 23.609M17.0868 23.289C16.6058 23.289 16.2693 23.639 16.2693 24.1509C16.2693 24.6728 16.6193 25.0128 17.1107 25.0128C17.3579 25.0128 17.5843 24.9511 17.7835 24.7828L17.6086 24.5183C17.471 24.6283 17.2958 24.69 17.1311 24.69C16.9011 24.69 16.6917 24.5835 16.6402 24.288H17.8589C17.8624 24.2436 17.866 24.1988 17.866 24.1508C17.8624 23.6391 17.546 23.2889 17.0866 23.2889M21.3956 24.1508C21.3956 23.8623 21.5846 23.6253 21.8935 23.6253C22.1887 23.6253 22.3879 23.8521 22.3879 24.1508C22.3879 24.4495 22.1887 24.6763 21.8935 24.6763C21.5846 24.6763 21.3955 24.4393 21.3955 24.1508M22.7243 24.1508V23.3304H22.3676V23.5304C22.254 23.3826 22.0827 23.2899 21.8492 23.2899C21.3892 23.2899 21.0282 23.6507 21.0282 24.1518C21.0282 24.6529 21.389 25.0137 21.8492 25.0137C22.0827 25.0137 22.254 24.9209 22.3676 24.7732V24.9725H22.7244V24.1514L22.7243 24.1508ZM19.3801 24.1508C19.3801 24.6487 19.7267 25.0127 20.2557 25.0127C20.5029 25.0127 20.6676 24.9577 20.8457 24.817L20.6743 24.5285C20.5403 24.6248 20.3996 24.6763 20.2443 24.6763C19.9594 24.6728 19.7499 24.4668 19.7499 24.1508C19.7499 23.8348 19.9594 23.6289 20.2443 23.6253C20.3992 23.6253 20.5399 23.6768 20.6743 23.7731L20.8457 23.4846C20.6673 23.3439 20.5026 23.2889 20.2557 23.2889C19.7267 23.2889 19.3801 23.6528 19.3801 24.1508ZM23.9811 23.2889C23.7752 23.2889 23.6411 23.3852 23.5484 23.5294V23.3304H23.1947V24.9716H23.552V24.0516C23.552 23.78 23.6687 23.6291 23.902 23.6291C23.9784 23.628 24.0542 23.642 24.1252 23.6704L24.2352 23.334C24.1562 23.3029 24.0532 23.2892 23.9809 23.2892M14.4145 23.4609C14.2428 23.3477 14.0062 23.2892 13.7452 23.2892C13.3294 23.2892 13.0617 23.4885 13.0617 23.8146C13.0617 24.0822 13.261 24.2473 13.628 24.2988L13.7966 24.3228C13.9923 24.3503 14.0847 24.4018 14.0847 24.4945C14.0847 24.6214 13.9547 24.6938 13.7106 24.6938C13.4634 24.6938 13.285 24.6148 13.1647 24.5221L12.997 24.8004C13.1927 24.9446 13.4399 25.0134 13.7076 25.0134C14.1816 25.0134 14.4563 24.7902 14.4563 24.4777C14.4563 24.1892 14.2401 24.0383 13.8829 23.9868L13.7147 23.9624C13.5602 23.9424 13.4364 23.9113 13.4364 23.8013C13.4364 23.6813 13.5531 23.6091 13.7489 23.6091C13.9584 23.6091 14.1612 23.6881 14.2606 23.7498L14.4151 23.4613L14.4145 23.4609ZM19.0196 23.2895C18.8137 23.2895 18.6796 23.3858 18.5873 23.53V23.3304H18.2336V24.9716H18.5905V24.0516C18.5905 23.78 18.7072 23.6291 18.9405 23.6291C19.0169 23.628 19.0927 23.642 19.1637 23.6704L19.2737 23.334C19.1947 23.3029 19.0917 23.2892 19.0194 23.2892M15.974 23.3304H15.3904V22.8325H15.0296V23.3304H14.6967V23.6566H15.0296V24.4053C15.0296 24.7861 15.1774 25.0129 15.5996 25.0129C15.7545 25.0129 15.9329 24.9649 16.0461 24.886L15.943 24.5804C15.8365 24.6421 15.7198 24.6732 15.627 24.6732C15.4486 24.6732 15.3904 24.5632 15.3904 24.3985V23.6569H15.974V23.3304ZM10.6381 24.972V23.942C10.6381 23.5541 10.3909 23.2931 9.99236 23.2896C9.78286 23.2861 9.56676 23.3513 9.41546 23.5816C9.30226 23.3996 9.12386 23.2896 8.87306 23.2896C8.69776 23.2896 8.52646 23.3411 8.39236 23.5333V23.3304H8.03516V24.9716H8.39516V24.0616C8.39516 23.7767 8.55316 23.6253 8.79716 23.6253C9.03416 23.6253 9.15406 23.7798 9.15406 24.058V24.9714H9.51486V24.0614C9.51486 23.7765 9.67956 23.6251 9.91646 23.6251C10.1602 23.6251 10.2765 23.7796 10.2765 24.0578V24.9712L10.6381 24.972Z" fill="#2C2C2C"/>
<path d="M26.81 19.5125V19.2725H26.7475L26.6752 19.4372L26.6033 19.2725H26.5406V19.5125H26.585V19.3317L26.6526 19.4877H26.6986L26.7662 19.3313V19.5125H26.8102H26.81ZM26.4135 19.5125V19.3136H26.4935V19.2731H26.2891V19.3136H26.3691V19.5125H26.4131H26.4135Z" fill="#F79410"/>
<path d="M19.7055 20.5418H14.2969V10.8218H19.7056L19.7055 20.5418Z" fill="#FF5F00"/>
<path d="M14.64 15.6817C14.64 13.71 15.5632 11.9536 17.0008 10.8217C15.9126 9.96365 14.5667 9.49796 13.1809 9.50001C9.7672 9.50001 7 12.2676 7 15.6817C7 19.0958 9.7672 21.8634 13.1809 21.8634C14.5667 21.8655 15.9127 21.3998 17.0009 20.5417C15.5634 19.41 14.64 17.6535 14.64 15.6817Z" fill="#EB001B"/>
<path d="M27.0014 15.6817C27.0014 19.0958 24.2342 21.8634 20.8205 21.8634C19.4345 21.8654 18.0884 21.3998 17 20.5417C18.438 19.4098 19.3612 17.6535 19.3612 15.6817C19.3612 13.7099 18.438 11.9536 17 10.8217C18.0884 9.96368 19.4345 9.498 20.8204 9.50001C24.2341 9.50001 27.0013 12.2676 27.0013 15.6817" fill="#F79E1B"/>
</g>
<defs>
<clipPath id="clip0_3753_16937">
<rect width="20" height="20" fill="white" transform="translate(7 7)"/>
</clipPath>
</defs>
</svg>
