<svg width="34" height="34" viewBox="0 0 34 34" fill="none" xmlns="http://www.w3.org/2000/svg">
<rect x="0.5" y="0.5" width="33" height="33" rx="16.5" fill="white"/>
<rect x="0.5" y="0.5" width="33" height="33" rx="16.5" stroke="#A6B0E7"/>
<path d="M12.2411 15.5768C8.4497 14.6663 5.8001 16.83 4.17033 14.397C4.16545 14.3872 4.16057 14.3823 4.15569 14.3725C4.11177 14.304 4.17033 14.2061 4.2484 14.2257C7.60555 15.0285 8.15204 14.5292 9.56225 14.7005C10.8651 14.8572 12.2411 15.5768 12.2411 15.5768Z" fill="black"/>
<path d="M12.9114 16.1891C9.57375 15.6947 7.20714 18.1962 5.42122 16.2723C5.41634 16.2674 5.41147 16.2576 5.40171 16.2528C5.35291 16.1989 5.38706 16.101 5.46026 16.1059C8.50998 16.3311 9.22728 15.7926 10.4813 15.7387C11.6524 15.6898 12.9114 16.1891 12.9114 16.1891Z" fill="black"/>
<path d="M13.5293 16.977C10.6162 16.5805 9.367 19.2043 7.00529 17.5987C7.00039 17.5938 6.99552 17.5889 6.98575 17.5791C6.93697 17.535 6.95161 17.4078 7.01993 17.4078C9.6012 17.4127 10.2746 16.8106 11.3627 16.6784C12.8364 16.5021 13.5293 16.977 13.5293 16.977Z" fill="black"/>
<path d="M14.8422 17.8432C13.3199 18.0047 13.5589 19.2286 11.8901 18.9544C11.6705 18.9202 11.7193 18.7635 11.817 18.7341C13.2173 18.3327 13.2173 18.0635 13.72 17.8628C14.1982 17.6816 14.8422 17.8432 14.8422 17.8432Z" fill="black"/>
<path d="M14.1543 17.4664C11.9585 17.5104 11.3973 19.0916 9.54797 18.5776C9.26496 18.4993 9.36255 18.2839 9.51383 18.2643C11.6316 17.9266 11.7341 17.6133 12.5196 17.4272C13.2564 17.251 14.1543 17.4664 14.1543 17.4664Z" fill="black"/>
<path d="M12.901 15.5721C12.8863 15.5966 12.8522 15.6015 12.8278 15.5917C12.374 15.3323 11.9495 15.0288 11.4615 14.6959C11.0029 14.3875 10.0172 13.9665 7.96774 14.0644C6.99183 14.1133 5.50844 14.314 3.97626 13.2615C3.60541 13.0119 3.22968 12.586 3.0345 12.1895C3.01498 12.1552 3.00522 12.1111 3.00034 12.0671C2.99546 12.023 3.04425 11.9888 3.08817 12.0034C6.87959 13.5308 7.96287 12.9336 10.349 13.4867C11.3298 13.7168 12.5448 15.1462 12.8961 15.5036C12.9156 15.5183 12.9156 15.5477 12.901 15.5721Z" fill="black"/>
<path d="M16.1988 23.9431C16.1549 24.0802 16.1647 24.2418 16.0768 24.3592C15.9695 24.5159 15.706 24.5306 15.5792 24.3886C15.4962 24.3152 15.4962 24.1977 15.4669 24.1047C15.2766 23.2676 15.0912 22.4305 14.9057 21.5884C14.8863 21.5298 14.9057 21.4905 14.9643 21.4661C15.057 21.4416 15.0668 21.5444 15.0961 21.6032C15.3059 22.1759 15.5011 22.7536 15.7158 23.3263C15.7841 23.5221 16.0134 23.4585 16.1647 23.5075C16.3258 23.6103 16.2281 23.8012 16.1988 23.9431Z" fill="black"/>
<path d="M16.4504 21.6323C16.4699 21.6861 16.4406 21.7498 16.382 21.7596C16.3479 21.7645 16.3187 21.7596 16.3089 21.7107C16.1674 21.4267 16.0453 21.1281 15.899 20.8441C15.7087 20.6827 15.5086 20.5162 15.3915 20.2861C15.1817 19.914 15.2012 19.4295 15.4354 19.0721C15.4549 19.0476 15.4696 19.0183 15.4891 18.9937C15.5232 18.9448 15.5964 18.9546 15.616 19.0134C15.6307 19.0574 15.6403 19.1014 15.6599 19.1406C15.9234 19.9679 16.1771 20.805 16.4504 21.6323Z" fill="black"/>
<path d="M16.4892 17.6916C16.4794 17.9119 16.3965 18.1175 16.3428 18.328C16.3379 18.3427 16.333 18.3525 16.3185 18.3574C16.2843 18.3721 16.2502 18.3476 16.2502 18.3133C16.255 18.0245 16.3575 17.7406 16.2843 17.4567C16.1769 17.0699 15.9134 16.7321 15.8939 16.321C15.8842 16.1056 15.9378 15.895 15.9818 15.6846C15.8256 15.3566 15.7524 14.9796 15.8354 14.6223C15.85 14.5782 15.8548 14.5782 15.8793 14.6125C16.0306 14.8328 16.2306 15.053 16.2306 15.3419C16.2111 15.7531 15.9866 16.1643 16.1379 16.5755C16.2598 16.9427 16.5234 17.2853 16.4892 17.6916Z" fill="black"/>
<path d="M17.7756 16.2719C17.7658 16.8104 17.2974 17.2412 17.3511 17.7895C17.3511 18 17.4047 18.2154 17.3804 18.4259C17.3462 18.6119 17.1363 18.6412 16.9852 18.6853C16.8973 18.7245 16.7997 18.6217 16.8241 18.5336C16.8241 17.8972 16.8241 17.2559 16.8241 16.6195C16.8339 16.3551 16.8973 16.0761 17.0778 15.8754C17.1901 15.7432 17.3072 15.611 17.4291 15.4789C17.4536 15.4495 17.4682 15.4152 17.4633 15.381C17.4536 15.2635 17.4291 15.1607 17.4828 15.0236C17.5658 14.8523 17.6732 14.7495 17.7854 14.6369C17.8049 14.6173 17.8341 14.6271 17.839 14.6516C17.9171 14.9991 17.839 15.3761 17.6781 15.6894C17.7171 15.8754 17.7756 16.0712 17.7756 16.2719Z" fill="black"/>
<path d="M23.9398 14.3041C23.2762 14.4901 22.9687 14.7153 22.7053 14.9258C22.7053 14.9258 23.3054 14.7153 24.1692 14.6223C26.6187 14.3531 26.7602 15.2685 29.5025 14.2062C29.5952 14.1915 29.6196 14.2649 29.5952 14.3041C29.2293 14.9405 28.8243 15.6454 27.292 15.7091C25.6232 15.7776 24.7547 15.1069 23.1883 15.3076C22.1881 15.4349 21.6708 15.7482 21.3829 15.9391C24.7985 15.2832 24.5156 16.7909 27.863 15.9881C27.902 15.9783 27.9459 15.9685 27.985 15.9734C28.0728 15.9832 28.1069 16.0909 28.0533 16.1496C28.0288 16.179 27.9947 16.2084 27.9703 16.2378C27.5312 16.7126 27.0676 17.2315 25.5061 17.114C23.6714 16.977 23.5543 15.8363 20.0508 16.7077C23.4469 16.693 23.3884 17.8092 25.9453 17.4763C26.0331 17.4665 26.0868 17.5742 26.0185 17.6329C25.9794 17.6672 25.9355 17.6965 25.9013 17.7259C25.5159 18.0294 24.9547 18.4015 23.9008 18.1861C21.705 17.7259 21.983 16.8154 19.1578 17.3147C21.3585 17.3735 21.2072 18.2301 23.4665 18.4406C23.4665 18.4406 23.4665 18.4406 23.4714 18.4406C23.5933 18.4553 23.6274 18.6169 23.525 18.6854C23.4469 18.7393 23.3591 18.7784 23.2762 18.8127C21.6269 19.454 20.8608 17.3784 18.8357 17.8434C20.285 17.9707 20.1679 18.4602 21.4756 18.8176C21.6171 18.8568 21.6025 19.0477 21.4463 19.0623C19.8946 19.219 20.0312 18.1714 19.0797 18.1323C18.826 18.1225 18.5918 18.2595 18.4649 18.4847C18.0891 19.1407 18.2404 19.7624 18.2161 20.1001C18.3039 20.4527 18.4356 20.7953 18.4405 21.1673C18.4454 21.4268 18.421 21.6961 18.3381 21.9457C18.1819 22.4646 18.0257 22.9835 17.8648 23.5073C17.8306 23.615 17.8354 23.7325 17.8744 23.8353C17.933 23.992 17.9916 24.1437 18.0159 24.3101C18.0745 24.5891 18.0355 24.878 17.9379 25.1472C17.733 25.6515 17.5281 26.1557 17.323 26.6648C17.284 26.7578 17.2548 26.8557 17.1865 26.934C17.084 26.9536 17.0938 26.8214 17.1035 26.7578C17.3036 24.8731 17.4939 22.9884 17.689 21.1037L17.8452 20.6533C17.5378 20.9177 17.4011 21.2849 17.2011 21.6128C17.1767 21.6911 17.0596 21.7059 17.0352 21.6177C17.0547 21.2898 17.0986 20.9617 17.1084 20.6337C17.1376 20.3009 17.1328 19.9631 17.245 19.6449C17.3719 19.3218 17.6158 19.0623 17.8061 18.7833C18.1185 18.3819 18.3526 17.9266 18.5137 17.4469C18.6113 17.1532 18.8163 16.8937 19.0797 16.7322C19.9923 16.1545 20.5241 15.6552 21.3877 14.9992C22.1832 14.3971 22.798 13.9272 23.1492 13.7852C24.7547 13.1243 27.9801 13.8342 30.7419 12.0327C30.8102 11.9935 30.898 12.0718 30.8443 12.1844C30.5858 12.8404 30.2783 13.2614 29.5464 13.6237C27.4384 14.6664 25.0181 14.0006 23.9398 14.3041Z" fill="black"/>
<path d="M17.5363 15.435C17.5363 15.435 17.3557 15.1168 16.9166 15.0776C16.5848 15.0483 16.4336 15.1609 16.4336 15.1609C16.4336 15.1609 16.8337 15.0434 17.1459 15.3224C17.4583 15.6014 17.2874 15.8413 17.2874 15.8413C17.2874 15.8413 17.629 15.6406 17.5363 15.435Z" fill="black"/>
<path d="M17.5181 15.3908C17.5181 15.3908 17.2887 15.1461 16.8203 15.1265C16.8203 15.1265 17.0984 15.195 17.1327 15.3468C17.1912 15.6356 16.9374 16.0223 16.8886 16.2083C16.8496 16.3748 17.5181 15.3908 17.5181 15.3908Z" fill="black"/>
</svg>
