<svg width="37" height="38" viewBox="0 0 37 38" fill="none" xmlns="http://www.w3.org/2000/svg">
<rect x="0.5" y="1" width="36" height="36" rx="18" fill="white"/>
<rect x="0.5" y="1" width="36" height="36" rx="18" stroke="#A6B0E7"/>
<path d="M18.6377 33.0137C19.3912 33.0137 20.002 32.4029 20.002 31.6494C20.002 30.8959 19.3912 30.2852 18.6377 30.2852C17.8843 30.2852 17.2734 30.8959 17.2734 31.6494C17.2734 32.4029 17.8843 33.0137 18.6377 33.0137Z" fill="#0079FE"/>
<path d="M22.3291 30.6602C23.0825 30.6602 23.6934 30.0493 23.6934 29.2959C23.6934 28.5424 23.0825 27.9316 22.3291 27.9316C21.5756 27.9316 20.9648 28.5424 20.9648 29.2959C20.9648 30.0493 21.5756 30.6602 22.3291 30.6602Z" fill="#0079FE"/>
<path d="M27.6102 20.3044C28.3592 20.3044 28.9665 19.6971 28.9665 18.9481C28.9665 18.199 28.3592 17.5918 27.6102 17.5918C26.8611 17.5918 26.2539 18.199 26.2539 18.9481C26.2539 19.6971 26.8611 20.3044 27.6102 20.3044Z" fill="#0079FE"/>
<path d="M25.3135 16.9375C26.0669 16.9375 26.6777 16.3267 26.6777 15.5733C26.6777 14.8198 26.0669 14.209 25.3135 14.209C24.56 14.209 23.9492 14.8198 23.9492 15.5733C23.9492 16.3267 24.56 16.9375 25.3135 16.9375Z" fill="#0079FE"/>
<path d="M22.3291 9.98048C23.0825 9.98048 23.6934 9.36969 23.6934 8.61624C23.6934 7.86274 23.0825 7.25195 22.3291 7.25195C21.5756 7.25195 20.9648 7.86274 20.9648 8.61624C20.9648 9.36969 21.5756 9.98048 22.3291 9.98048Z" fill="#0079FE"/>
<path d="M18.6377 7.71486C19.3912 7.71486 20.002 7.10407 20.002 6.35061C20.002 5.59712 19.3912 4.98633 18.6377 4.98633C17.8843 4.98633 17.2734 5.59712 17.2734 6.35061C17.2734 7.10407 17.8843 7.71486 18.6377 7.71486Z" fill="#0079FE"/>
<path d="M9.40331 10.6587C10.1568 10.6587 10.7676 10.0479 10.7676 9.29442C10.7676 8.54097 10.1568 7.93018 9.40331 7.93018C8.64985 7.93018 8.03906 8.54097 8.03906 9.29442C8.03906 10.0479 8.64985 10.6587 9.40331 10.6587Z" fill="#0079FE"/>
<path d="M10.1377 20.6235C10.8911 20.6235 11.502 20.0128 11.502 19.2593C11.502 18.5058 10.8911 17.895 10.1377 17.895C9.38423 17.895 8.77344 18.5058 8.77344 19.2593C8.77344 20.0128 9.38423 20.6235 10.1377 20.6235Z" fill="#0079FE"/>
<path d="M10.1375 26.1764C10.8866 26.1764 11.4938 25.5692 11.4938 24.8202C11.4938 24.0711 10.8866 23.4639 10.1375 23.4639C9.38849 23.4639 8.78125 24.0711 8.78125 24.8202C8.78125 25.5692 9.38849 26.1764 10.1375 26.1764Z" fill="#0079FE"/>
<path d="M14.1221 30.2769C14.8756 30.2769 15.4863 29.6661 15.4863 28.9126C15.4863 28.1592 14.8756 27.5483 14.1221 27.5483C13.3686 27.5483 12.7578 28.1592 12.7578 28.9126C12.7578 29.6661 13.3686 30.2769 14.1221 30.2769Z" fill="#0079FE"/>
<path d="M16.3209 19.4669C16.8395 18.9244 17.7171 18.9244 18.2357 19.4669C18.7623 19.9855 18.7623 20.8551 18.2357 21.3737C17.7171 21.9242 16.8395 21.9242 16.3209 21.3737C15.7784 20.8472 15.7784 19.9855 16.3209 19.4669Z" fill="#0079FE"/>
<path d="M19.2352 31.8728H18.0624V27.8518L12.9883 22.7936V16.2914L18.0305 11.2731V6.25488H19.2032V11.7598L14.177 16.7941V22.307L19.2352 27.3651V31.8728Z" fill="#0079FE"/>
<path d="M19.0604 28.0191L18.2227 27.1974L21.4299 23.9822V19.1235L18.4061 16.0838L21.757 12.7409V8.61621H22.9218V13.2356L20.0816 16.0838L22.6186 18.6208V24.4848L19.0604 28.0191Z" fill="#0079FE"/>
<path d="M21.8047 24.4536L17.6357 20.2847L16.8008 21.1196L20.9697 25.2886L21.8047 24.4536Z" fill="#0079FE"/>
<path d="M13.1565 16.6982L8.81641 12.3501V9.29443H9.99714V11.8634L14.0022 15.8525L13.1565 16.6982Z" fill="#0079FE"/>
<path d="M25.7444 16.0151L24.9173 15.1724L21.5977 18.4306L22.4248 19.2733L25.7444 16.0151Z" fill="#0079FE"/>
<path d="M14.0099 22.1249L10.5609 18.6914L9.71094 19.5452L13.1599 22.9786L14.0099 22.1249Z" fill="#0079FE"/>
<path d="M22.6815 29.7186L21.8438 28.8729L24.7478 25.9849V20.9746L27.1891 18.5093L28.0348 19.355L25.9206 21.4532V26.4715L22.6815 29.7186Z" fill="#0079FE"/>
<path d="M14.5473 28.4977L10.5589 24.5093L9.70703 25.3611L13.6955 29.3496L14.5473 28.4977Z" fill="#0079FE"/>
</svg>
