<svg width="26" height="26" viewBox="0 0 26 26" fill="none" xmlns="http://www.w3.org/2000/svg">
<path d="M23.8002 19.8575C23.8002 20.2475 23.7135 20.6483 23.5293 21.0383C23.3452 21.4283 23.1069 21.7966 22.7927 22.1433C22.2619 22.7283 21.6768 23.1508 21.016 23.4216C20.366 23.6925 19.6619 23.8333 18.9035 23.8333C17.7985 23.8333 16.6177 23.5733 15.3718 23.0425C14.126 22.5116 12.8802 21.7966 11.6452 20.8975C10.3993 19.9875 9.21852 18.98 8.09185 17.8641C6.97602 16.7375 5.96852 15.5566 5.06935 14.3216C4.18102 13.0866 3.46602 11.8516 2.94602 10.6275C2.42602 9.39246 2.16602 8.21163 2.16602 7.08496C2.16602 6.34829 2.29602 5.64413 2.55602 4.99413C2.81602 4.33329 3.22768 3.72663 3.80185 3.18496C4.49518 2.50246 5.25352 2.16663 6.05518 2.16663C6.35852 2.16663 6.66185 2.23163 6.93268 2.36163C7.21435 2.49163 7.46352 2.68663 7.65852 2.96829L10.1718 6.51079C10.3668 6.78163 10.5077 7.03079 10.6052 7.26913C10.7027 7.49663 10.7568 7.72413 10.7568 7.92996C10.7568 8.18996 10.681 8.44996 10.5293 8.69913C10.3885 8.94829 10.1827 9.20829 9.92268 9.46829L9.09935 10.3241C8.98018 10.4433 8.92602 10.5841 8.92602 10.7575C8.92602 10.8441 8.93685 10.92 8.95852 11.0066C8.99102 11.0933 9.02352 11.1583 9.04518 11.2233C9.24018 11.5808 9.57602 12.0466 10.0527 12.61C10.5402 13.1733 11.0602 13.7475 11.6235 14.3216C12.2085 14.8958 12.7718 15.4266 13.346 15.9141C13.9093 16.3908 14.3752 16.7158 14.7435 16.9108C14.7977 16.9325 14.8627 16.965 14.9385 16.9975C15.0252 17.03 15.1118 17.0408 15.2093 17.0408C15.3935 17.0408 15.5343 16.9758 15.6535 16.8566L16.4768 16.0441C16.7477 15.7733 17.0077 15.5675 17.2568 15.4375C17.506 15.2858 17.7552 15.21 18.026 15.21C18.2318 15.21 18.4485 15.2533 18.6868 15.3508C18.9252 15.4483 19.1744 15.5891 19.4452 15.7733L23.031 18.3191C23.3127 18.5141 23.5077 18.7416 23.6268 19.0125C23.7352 19.2833 23.8002 19.5541 23.8002 19.8575Z" stroke="#74809C" stroke-width="1.5" stroke-miterlimit="10"/>
</svg>
