<svg width="100" height="100" viewBox="0 0 100 100" fill="none" xmlns="http://www.w3.org/2000/svg">
<path opacity="0.4" d="M90.6663 66.3335L63.9997 18.3335C60.4163 11.8752 55.458 8.3335 49.9997 8.3335C44.5413 8.3335 39.583 11.8752 35.9997 18.3335L9.333 66.3335C5.958 72.4585 5.583 78.3335 8.29133 82.9585C10.9997 87.5835 16.333 90.1252 23.333 90.1252H76.6663C83.6663 90.1252 88.9997 87.5835 91.708 82.9585C94.4163 78.3335 94.0413 72.4168 90.6663 66.3335Z" fill="#FFBF00"/>
<path d="M50 61.4583C48.2917 61.4583 46.875 60.0417 46.875 58.3333V37.5C46.875 35.7917 48.2917 34.375 50 34.375C51.7083 34.375 53.125 35.7917 53.125 37.5V58.3333C53.125 60.0417 51.7083 61.4583 50 61.4583Z" fill="#FFBF00"/>
<path d="M49.9987 75C49.7487 75 49.457 74.9583 49.1654 74.9167C48.9154 74.875 48.6654 74.7917 48.4154 74.6667C48.1654 74.5833 47.9154 74.4583 47.6654 74.2917C47.457 74.125 47.2487 73.9583 47.0404 73.7917C46.2904 73 45.832 71.9167 45.832 70.8333C45.832 69.75 46.2904 68.6667 47.0404 67.875C47.2487 67.7083 47.457 67.5417 47.6654 67.375C47.9154 67.2083 48.1654 67.0833 48.4154 67C48.6654 66.875 48.9154 66.7917 49.1654 66.75C49.707 66.625 50.2904 66.625 50.7904 66.75C51.082 66.7917 51.332 66.875 51.582 67C51.832 67.0833 52.082 67.2083 52.332 67.375C52.5404 67.5417 52.7487 67.7083 52.957 67.875C53.707 68.6667 54.1654 69.75 54.1654 70.8333C54.1654 71.9167 53.707 73 52.957 73.7917C52.7487 73.9583 52.5404 74.125 52.332 74.2917C52.082 74.4583 51.832 74.5833 51.582 74.6667C51.332 74.7917 51.082 74.875 50.7904 74.9167C50.5404 74.9583 50.2487 75 49.9987 75Z" fill="#FFBF00"/>
</svg>
