<svg width="24" height="24" viewBox="0 0 24 24" fill="none" xmlns="http://www.w3.org/2000/svg">
<path d="M13.9914 3.19968L13.9916 3.19986L19.7516 7.2298C19.7516 7.22982 19.7516 7.22984 19.7516 7.22986C20.2208 7.55833 20.6651 8.0969 20.9925 8.72408C21.32 9.35129 21.5083 10.0244 21.5083 10.6002V17.3802C21.5083 19.654 19.6621 21.5002 17.3883 21.5002H6.60828C4.33583 21.5002 2.48828 19.6454 2.48828 17.3702V10.4702C2.48828 9.93574 2.65867 9.29667 2.95686 8.69105C3.25491 8.0857 3.65935 7.55706 4.0858 7.22443L4.0859 7.22435L9.09453 3.31542C9.09475 3.31525 9.09496 3.31508 9.09518 3.31491C10.432 2.27962 12.6011 2.22559 13.9914 3.19968ZM12.1485 16.6377L12.1509 16.6379C12.5065 16.6718 12.8544 16.5512 13.1118 16.2937L15.2465 14.1591C15.4659 14.4288 15.8009 14.6002 16.1783 14.6002C16.8444 14.6002 17.3783 14.0663 17.3783 13.4002V11.5402C17.3783 11.4148 17.3648 11.2496 17.288 11.0736C17.1665 10.7832 16.9299 10.5478 16.6387 10.4278L16.6227 10.4213L16.6064 10.4158C16.4873 10.3761 16.3411 10.3402 16.1783 10.3402H14.3183C13.6521 10.3402 13.1183 10.874 13.1183 11.5402C13.1183 11.9176 13.2896 12.2525 13.5594 12.472L12.4647 13.5667L11.7885 12.5591C11.5888 12.2398 11.2549 12.0557 10.9057 12.0224C10.5501 11.9886 10.2022 12.1092 9.94473 12.3666L6.96473 15.3466L6.96467 15.3466L6.95836 15.3531C6.50506 15.8232 6.49599 16.575 6.96473 17.0437C7.19335 17.2724 7.5027 17.3902 7.80828 17.3902C8.10805 17.3902 8.40936 17.2862 8.65183 17.0437L10.6019 15.0937L11.2811 16.1058C11.4703 16.3956 11.7922 16.6021 12.1485 16.6377Z" fill="#6425FE" stroke="#6425FE"/>
</svg>
