<svg width="24" height="24" viewBox="0 0 24 24" fill="none" xmlns="http://www.w3.org/2000/svg">
<path d="M12 15.5C14.21 15.5 16 13.71 16 11.5V6C16 3.79 14.21 2 12 2C9.79 2 8 3.79 8 6V11.5C8 13.71 9.79 15.5 12 15.5Z" stroke="#84828A" stroke-width="1.5" stroke-linecap="round" stroke-linejoin="round"/>
<path d="M4.35156 9.6499V11.3499C4.35156 15.5699 7.78156 18.9999 12.0016 18.9999C16.2216 18.9999 19.6516 15.5699 19.6516 11.3499V9.6499" stroke="#84828A" stroke-width="1.5" stroke-linecap="round" stroke-linejoin="round"/>
<path d="M10.6094 6.43012C11.5094 6.10012 12.4894 6.10012 13.3894 6.43012" stroke="#84828A" stroke-width="1.5" stroke-linecap="round" stroke-linejoin="round"/>
<path d="M11.1992 8.54982C11.7292 8.40982 12.2792 8.40982 12.8092 8.54982" stroke="#84828A" stroke-width="1.5" stroke-linecap="round" stroke-linejoin="round"/>
<path d="M12 19V22" stroke="#84828A" stroke-width="1.5" stroke-linecap="round" stroke-linejoin="round"/>
</svg>
