<svg width="30" height="31" viewBox="0 0 30 31" fill="none" xmlns="http://www.w3.org/2000/svg">
<path d="M15.0262 4.1377C10.8887 4.1377 7.52621 7.5002 7.52621 11.6377V15.2502C7.52621 16.0127 7.20121 17.1752 6.81371 17.8252L5.37621 20.2127C4.48871 21.6877 5.10121 23.3252 6.72621 23.8752C12.1137 25.6752 17.9262 25.6752 23.3137 23.8752C24.8262 23.3752 25.4887 21.5877 24.6637 20.2127L23.2262 17.8252C22.8512 17.1752 22.5262 16.0127 22.5262 15.2502V11.6377C22.5262 7.5127 19.1512 4.1377 15.0262 4.1377Z" stroke="#84828A" stroke-width="1.5" stroke-miterlimit="10" stroke-linecap="round"/>
<path d="M17.3359 4.4998C16.9484 4.3873 16.5484 4.2998 16.1359 4.2498C14.9359 4.0998 13.7859 4.1873 12.7109 4.4998C13.0734 3.5748 13.9734 2.9248 15.0234 2.9248C16.0734 2.9248 16.9734 3.5748 17.3359 4.4998Z" stroke="#84828A" stroke-width="1.5" stroke-miterlimit="10" stroke-linecap="round" stroke-linejoin="round"/>
<path d="M18.7734 24.3252C18.7734 26.3877 17.0859 28.0752 15.0234 28.0752C13.9984 28.0752 13.0484 27.6502 12.3734 26.9752C11.6984 26.3002 11.2734 25.3502 11.2734 24.3252" stroke="#84828A" stroke-width="1.5" stroke-miterlimit="10"/>
</svg>
