<svg width="12" height="24" viewBox="0 0 12 24" fill="none" xmlns="http://www.w3.org/2000/svg">
<path d="M5.24473 7.1733V0H0.65625V15.3968L2.68536 13.3617C3.49746 12.5495 4.14155 11.5848 4.58073 10.5229C5.0199 9.46098 5.24553 8.3227 5.24473 7.1733Z" fill="#FC502B"/>
<path d="M0.65625 21.1399V23.9997H5.24473V12.9194L3.2156 14.9516C1.5771 16.593 0.65652 18.8189 0.65625 21.1399Z" fill="#FC502B"/>
<path d="M11.3385 2.42966V0H6.75V10.6502L8.77913 8.61802C9.5912 7.80586 10.2353 6.84114 10.6745 5.77926C11.1137 4.71735 11.3393 3.57906 11.3385 2.42966Z" fill="#FC502B"/>
<path d="M9.30934 10.208C8.49791 11.0206 7.85423 11.9854 7.41513 13.0472C6.97598 14.109 6.74996 15.2471 6.75 16.3964V23.9998H11.3414V8.17285L9.30934 10.208Z" fill="#FC502B"/>
</svg>
