<svg width="16" height="20" viewBox="0 0 16 20" fill="none" xmlns="http://www.w3.org/2000/svg">
<path d="M7.84244 8.08712C7.89672 8.05549 7.94129 8.008 7.97098 7.95018L9.84485 4.2998L11.7187 7.95011C11.7483 8.00794 11.7929 8.05542 11.8472 8.08705L15.2734 10.0835L11.8473 12.08C11.793 12.1116 11.7484 12.1591 11.7187 12.2169L9.84491 15.8672L7.97104 12.2169C7.94135 12.1591 7.89678 12.1116 7.84251 12.08L4.41633 10.0835L7.84244 8.08712Z" fill="url(#paint0_linear_3638_18886)"/>
<path d="M2.25053 2.98833C2.28618 2.96755 2.31547 2.93635 2.33498 2.89836L3.56614 0.5L4.79726 2.89831C4.81677 2.9363 4.84605 2.9675 4.88171 2.98829L7.13281 4.29999L4.88175 5.61169C4.8461 5.63248 4.81681 5.66367 4.79731 5.70166L3.56618 8.09998L2.33502 5.70166C2.31551 5.66367 2.28623 5.63248 2.25057 5.61169L-0.000488281 4.29999L2.25053 2.98833Z" fill="url(#paint1_linear_3638_18886)"/>
<path d="M2.25053 14.3877C2.28618 14.367 2.31547 14.3358 2.33498 14.2978L3.56614 11.8994L4.79726 14.2977C4.81677 14.3357 4.84605 14.3669 4.88171 14.3877L7.13281 15.6994L4.88175 17.0111C4.8461 17.0319 4.81681 17.0631 4.79731 17.1011L3.56618 19.4994L2.33502 17.1011C2.31551 17.0631 2.28623 17.0319 2.25057 17.0111L-0.000488281 15.6994L2.25053 14.3877Z" fill="url(#paint2_linear_3638_18886)"/>
<defs>
<linearGradient id="paint0_linear_3638_18886" x1="9.84488" y1="4.2998" x2="9.84488" y2="15.8672" gradientUnits="userSpaceOnUse">
<stop stop-color="#E2D9FF"/>
<stop offset="1" stop-color="#917DD1"/>
</linearGradient>
<linearGradient id="paint1_linear_3638_18886" x1="3.56616" y1="8.09998" x2="3.56616" y2="0.5" gradientUnits="userSpaceOnUse">
<stop stop-color="#917DD1"/>
<stop offset="1" stop-color="#DAD0FA"/>
</linearGradient>
<linearGradient id="paint2_linear_3638_18886" x1="-0.000487856" y1="15.6994" x2="7.13281" y2="15.6994" gradientUnits="userSpaceOnUse">
<stop stop-color="#917DD1"/>
<stop offset="1" stop-color="#D9CFFA"/>
</linearGradient>
</defs>
</svg>
