<svg width="520" height="60" viewBox="0 0 520 60" fill="none" xmlns="http://www.w3.org/2000/svg">
<line x1="55" y1="30" x2="235" y2="30" stroke="#5F6CB3" stroke-width="2"/>
<line x1="285" y1="30" x2="465" y2="30" stroke="#5F6CB3" stroke-width="2"/>
<path opacity="0.4" d="M26.8742 6.12505C28.5992 4.65005 31.4242 4.65005 33.1742 6.12505L37.1242 9.52505C37.8742 10.175 39.2742 10.7 40.2742 10.7H44.5242C47.1742 10.7 49.3492 12.875 49.3492 15.525V19.775C49.3492 20.75 49.8742 22.1751 50.5242 22.9251L53.9242 26.8751C55.3992 28.6001 55.3992 31.4251 53.9242 33.1751L50.5242 37.1251C49.8742 37.8751 49.3492 39.2751 49.3492 40.2751V44.5251C49.3492 47.1751 47.1742 49.3501 44.5242 49.3501H40.2742C39.2992 49.3501 37.8742 49.8751 37.1242 50.5251L33.1742 53.9251C31.4492 55.4001 28.6242 55.4001 26.8742 53.9251L22.9242 50.5251C22.1742 49.8751 20.7742 49.3501 19.7742 49.3501H15.4492C12.7992 49.3501 10.6242 47.1751 10.6242 44.5251V40.2501C10.6242 39.2751 10.0992 37.8751 9.47422 37.1251L6.09922 33.1501C4.64922 31.4251 4.64922 28.6251 6.09922 26.9001L9.47422 22.9251C10.0992 22.1751 10.6242 20.7751 10.6242 19.8V15.5C10.6242 12.85 12.7992 10.675 15.4492 10.675H19.7742C20.7492 10.675 22.1742 10.15 22.9242 9.50005L26.8742 6.12505Z" fill="#5F6CB3"/>
<path d="M26.9754 37.925C26.4754 37.925 26.0004 37.725 25.6504 37.375L19.6004 31.325C18.8754 30.6 18.8754 29.4 19.6004 28.675C20.3254 27.95 21.5254 27.95 22.2504 28.675L26.9754 33.4L37.7254 22.65C38.4504 21.925 39.6504 21.925 40.3754 22.65C41.1004 23.375 41.1004 24.575 40.3754 25.3L28.3004 37.375C27.9504 37.725 27.4754 37.925 26.9754 37.925Z" fill="#5F6CB3"/>
<path opacity="0.4" d="M256.874 6.12505C258.599 4.65005 261.424 4.65005 263.174 6.12505L267.124 9.52505C267.874 10.175 269.274 10.7 270.274 10.7H274.524C277.174 10.7 279.349 12.875 279.349 15.525V19.775C279.349 20.75 279.874 22.1751 280.524 22.9251L283.924 26.8751C285.399 28.6001 285.399 31.4251 283.924 33.1751L280.524 37.1251C279.874 37.8751 279.349 39.2751 279.349 40.2751V44.5251C279.349 47.1751 277.174 49.3501 274.524 49.3501H270.274C269.299 49.3501 267.874 49.8751 267.124 50.5251L263.174 53.9251C261.449 55.4001 258.624 55.4001 256.874 53.9251L252.924 50.5251C252.174 49.8751 250.774 49.3501 249.774 49.3501H245.449C242.799 49.3501 240.624 47.1751 240.624 44.5251V40.2501C240.624 39.2751 240.099 37.8751 239.474 37.1251L236.099 33.1501C234.649 31.4251 234.649 28.6251 236.099 26.9001L239.474 22.9251C240.099 22.1751 240.624 20.7751 240.624 19.8V15.5C240.624 12.85 242.799 10.675 245.449 10.675H249.774C250.749 10.675 252.174 10.15 252.924 9.50005L256.874 6.12505Z" fill="#5F6CB3"/>
<path d="M256.975 37.925C256.475 37.925 256 37.725 255.65 37.375L249.6 31.325C248.875 30.6 248.875 29.4 249.6 28.675C250.325 27.95 251.525 27.95 252.25 28.675L256.975 33.4L267.725 22.65C268.45 21.925 269.65 21.925 270.375 22.65C271.1 23.375 271.1 24.575 270.375 25.3L258.3 37.375C257.95 37.725 257.475 37.925 256.975 37.925Z" fill="#5F6CB3"/>
<rect x="461" y="1" width="58" height="58" rx="29" fill="#5F6CB3"/>
<rect x="461" y="1" width="58" height="58" rx="29" stroke="#EAEEFF" stroke-width="2"/>
<path d="M483.82 25.112C483.9 23.512 484.46 22.28 485.5 21.416C486.556 20.536 487.94 20.096 489.652 20.096C490.82 20.096 491.82 20.304 492.652 20.72C493.484 21.12 494.108 21.672 494.524 22.376C494.956 23.064 495.172 23.848 495.172 24.728C495.172 25.736 494.908 26.592 494.38 27.296C493.868 27.984 493.252 28.448 492.532 28.688V28.784C493.46 29.072 494.18 29.584 494.692 30.32C495.22 31.056 495.484 32 495.484 33.152C495.484 34.112 495.26 34.968 494.812 35.72C494.38 36.472 493.732 37.064 492.868 37.496C492.02 37.912 490.996 38.12 489.796 38.12C487.988 38.12 486.516 37.664 485.38 36.752C484.244 35.84 483.644 34.496 483.58 32.72H486.844C486.876 33.504 487.14 34.136 487.636 34.616C488.148 35.08 488.844 35.312 489.724 35.312C490.54 35.312 491.164 35.088 491.596 34.64C492.044 34.176 492.268 33.584 492.268 32.864C492.268 31.904 491.964 31.216 491.356 30.8C490.748 30.384 489.804 30.176 488.524 30.176H487.828V27.416H488.524C490.796 27.416 491.932 26.656 491.932 25.136C491.932 24.448 491.724 23.912 491.308 23.528C490.908 23.144 490.324 22.952 489.556 22.952C488.804 22.952 488.22 23.16 487.804 23.576C487.404 23.976 487.172 24.488 487.108 25.112H483.82Z" fill="white"/>
</svg>
