<svg width="520" height="60" viewBox="0 0 520 60" fill="none" xmlns="http://www.w3.org/2000/svg">
<line x1="55" y1="30" x2="233" y2="30" stroke="#5F6CB3" stroke-width="2"/>
<line x1="291" y1="30" x2="466" y2="30" stroke="#A6B0E7" stroke-width="2"/>
<path opacity="0.4" d="M26.8742 6.12505C28.5992 4.65005 31.4242 4.65005 33.1742 6.12505L37.1242 9.52505C37.8742 10.175 39.2742 10.7 40.2742 10.7H44.5242C47.1742 10.7 49.3492 12.875 49.3492 15.525V19.775C49.3492 20.75 49.8742 22.1751 50.5242 22.9251L53.9242 26.8751C55.3992 28.6001 55.3992 31.4251 53.9242 33.1751L50.5242 37.1251C49.8742 37.8751 49.3492 39.2751 49.3492 40.2751V44.5251C49.3492 47.1751 47.1742 49.3501 44.5242 49.3501H40.2742C39.2992 49.3501 37.8742 49.8751 37.1242 50.5251L33.1742 53.9251C31.4492 55.4001 28.6242 55.4001 26.8742 53.9251L22.9242 50.5251C22.1742 49.8751 20.7742 49.3501 19.7742 49.3501H15.4492C12.7992 49.3501 10.6242 47.1751 10.6242 44.5251V40.2501C10.6242 39.2751 10.0992 37.8751 9.47422 37.1251L6.09922 33.1501C4.64922 31.4251 4.64922 28.6251 6.09922 26.9001L9.47422 22.9251C10.0992 22.1751 10.6242 20.7751 10.6242 19.8V15.5C10.6242 12.85 12.7992 10.675 15.4492 10.675H19.7742C20.7492 10.675 22.1742 10.15 22.9242 9.50005L26.8742 6.12505Z" fill="#5F6CB3"/>
<path d="M26.9754 37.925C26.4754 37.925 26.0004 37.725 25.6504 37.375L19.6004 31.325C18.8754 30.6 18.8754 29.4 19.6004 28.675C20.3254 27.95 21.5254 27.95 22.2504 28.675L26.9754 33.4L37.7254 22.65C38.4504 21.925 39.6504 21.925 40.3754 22.65C41.1004 23.375 41.1004 24.575 40.3754 25.3L28.3004 37.375C27.9504 37.725 27.4754 37.925 26.9754 37.925Z" fill="#5F6CB3"/>
<rect x="233.5" y="1" width="58" height="58" rx="29" fill="#5F6CB3"/>
<rect x="233.5" y="1" width="58" height="58" rx="29" stroke="white" stroke-width="2"/>
<path d="M257.828 34.208C259.364 32.928 260.588 31.864 261.5 31.016C262.412 30.152 263.172 29.256 263.78 28.328C264.388 27.4 264.692 26.488 264.692 25.592C264.692 24.776 264.5 24.136 264.116 23.672C263.732 23.208 263.14 22.976 262.34 22.976C261.54 22.976 260.924 23.248 260.492 23.792C260.06 24.32 259.836 25.048 259.82 25.976H256.556C256.62 24.056 257.188 22.6 258.26 21.608C259.348 20.616 260.724 20.12 262.388 20.12C264.212 20.12 265.612 20.608 266.588 21.584C267.564 22.544 268.052 23.816 268.052 25.4C268.052 26.648 267.716 27.84 267.044 28.976C266.372 30.112 265.604 31.104 264.74 31.952C263.876 32.784 262.748 33.792 261.356 34.976H268.436V37.76H256.58V35.264L257.828 34.208Z" fill="white"/>
<rect x="465" y="2.5" width="55" height="55" rx="27.5" fill="#A6B0E7"/>
<path d="M486.44 25.016C486.552 23.544 487.12 22.392 488.144 21.56C489.168 20.728 490.496 20.312 492.128 20.312C493.216 20.312 494.152 20.512 494.936 20.912C495.736 21.296 496.336 21.824 496.736 22.496C497.152 23.168 497.36 23.928 497.36 24.776C497.36 25.768 497.072 26.624 496.496 27.344C495.936 28.064 495.2 28.528 494.288 28.736V28.856C495.328 29.112 496.152 29.616 496.76 30.368C497.368 31.12 497.672 32.104 497.672 33.32C497.672 34.232 497.464 35.056 497.048 35.792C496.632 36.512 496.008 37.08 495.176 37.496C494.344 37.912 493.344 38.12 492.176 38.12C490.48 38.12 489.088 37.68 488 36.8C486.912 35.904 486.304 34.64 486.176 33.008H488.288C488.4 33.968 488.792 34.752 489.464 35.36C490.136 35.968 491.032 36.272 492.152 36.272C493.272 36.272 494.12 35.984 494.696 35.408C495.288 34.816 495.584 34.056 495.584 33.128C495.584 31.928 495.184 31.064 494.384 30.536C493.584 30.008 492.376 29.744 490.76 29.744H490.208V27.92H490.784C492.256 27.904 493.368 27.664 494.12 27.2C494.872 26.72 495.248 25.984 495.248 24.992C495.248 24.144 494.968 23.464 494.408 22.952C493.864 22.44 493.08 22.184 492.056 22.184C491.064 22.184 490.264 22.44 489.656 22.952C489.048 23.464 488.688 24.152 488.576 25.016H486.44Z" fill="white"/>
</svg>
