<svg width="520" height="60" viewBox="0 0 520 60" fill="none" xmlns="http://www.w3.org/2000/svg">
<line x1="59" y1="30" x2="465" y2="30" stroke="#A6B0E7" stroke-width="2"/>
<rect x="1.5" y="1.5" width="57" height="57" rx="28.5" fill="#5F6CB3"/>
<rect x="1.5" y="1.5" width="57" height="57" rx="28.5" stroke="#EAEEFF" stroke-width="3"/>
<path d="M26.364 23.6V20.504H32.148V38H28.692V23.6H26.364Z" fill="white"/>
<rect x="235" y="2.5" width="55" height="55" rx="27.5" fill="#A6B0E7"/>
<path d="M256.724 36.68C259.668 34.472 261.94 32.496 263.54 30.752C265.156 28.992 265.964 27.272 265.964 25.592C265.964 24.488 265.684 23.608 265.124 22.952C264.58 22.28 263.684 21.944 262.436 21.944C261.22 21.944 260.276 22.328 259.604 23.096C258.948 23.848 258.58 24.856 258.5 26.12H256.868C256.964 24.344 257.508 22.968 258.5 21.992C259.508 21 260.82 20.504 262.436 20.504C263.988 20.504 265.244 20.944 266.204 21.824C267.164 22.688 267.644 23.92 267.644 25.52C267.644 27.456 266.836 29.336 265.22 31.16C263.62 32.968 261.644 34.736 259.292 36.464H268.172V37.88H256.724V36.68Z" fill="white"/>
<rect x="465" y="2.5" width="55" height="55" rx="27.5" fill="#A6B0E7"/>
<path d="M486.44 25.016C486.552 23.544 487.12 22.392 488.144 21.56C489.168 20.728 490.496 20.312 492.128 20.312C493.216 20.312 494.152 20.512 494.936 20.912C495.736 21.296 496.336 21.824 496.736 22.496C497.152 23.168 497.36 23.928 497.36 24.776C497.36 25.768 497.072 26.624 496.496 27.344C495.936 28.064 495.2 28.528 494.288 28.736V28.856C495.328 29.112 496.152 29.616 496.76 30.368C497.368 31.12 497.672 32.104 497.672 33.32C497.672 34.232 497.464 35.056 497.048 35.792C496.632 36.512 496.008 37.08 495.176 37.496C494.344 37.912 493.344 38.12 492.176 38.12C490.48 38.12 489.088 37.68 488 36.8C486.912 35.904 486.304 34.64 486.176 33.008H488.288C488.4 33.968 488.792 34.752 489.464 35.36C490.136 35.968 491.032 36.272 492.152 36.272C493.272 36.272 494.12 35.984 494.696 35.408C495.288 34.816 495.584 34.056 495.584 33.128C495.584 31.928 495.184 31.064 494.384 30.536C493.584 30.008 492.376 29.744 490.76 29.744H490.208V27.92H490.784C492.256 27.904 493.368 27.664 494.12 27.2C494.872 26.72 495.248 25.984 495.248 24.992C495.248 24.144 494.968 23.464 494.408 22.952C493.864 22.44 493.08 22.184 492.056 22.184C491.064 22.184 490.264 22.44 489.656 22.952C489.048 23.464 488.688 24.152 488.576 25.016H486.44Z" fill="white"/>
</svg>
