<svg width="25" height="25" viewBox="0 0 25 25" fill="none" xmlns="http://www.w3.org/2000/svg">
<g clip-path="url(#clip0_3760_16579)">
<path d="M1.23459 8.84794C0.867 9.99956 0.667922 11.2264 0.667969 12.5C0.667922 13.7736 0.867047 15.0005 1.23464 16.1521L12.668 16.674L24.1013 16.1522C24.4688 15.0006 24.668 13.7736 24.668 12.5001C24.668 11.2265 24.4689 9.99956 24.1013 8.84789L12.668 8.32617L1.23459 8.84794Z" fill="#F0F0F0"/>
<path d="M24.1012 8.84789L12.6678 8.32617L1.23447 8.84789C1.12553 9.18933 1.03173 9.53747 0.953125 9.89138H24.3824C24.3039 9.53742 24.2101 9.18923 24.1012 8.84789Z" fill="#D80027"/>
<path d="M0.953125 15.1089C1.03164 15.4628 1.12544 15.8109 1.23438 16.1523L1.2355 16.1524L12.6677 16.6741L24.101 16.1524C24.2099 15.8109 24.3037 15.4628 24.3823 15.1089H0.953125Z" fill="#D80027"/>
<path d="M12.6677 24.5002C18.0215 24.5002 22.5558 20.9938 24.101 16.1523H1.23438C2.77961 20.9937 7.31392 24.5002 12.6677 24.5002Z" fill="#6DA544"/>
<path d="M12.6677 0.5C7.31392 0.500047 2.7797 4.00644 1.23438 8.84783L24.101 8.84788C22.5558 4.00639 18.0216 0.499953 12.6677 0.5Z" fill="#338AF3"/>
<path d="M6.15075 5.45667C6.15075 4.33275 6.94064 3.39384 7.99547 3.1635C7.83337 3.12806 7.66514 3.10889 7.49236 3.10889C6.1957 3.10889 5.14453 4.16001 5.14453 5.45671C5.14453 6.75342 6.19561 7.80454 7.49236 7.80454C7.66514 7.80454 7.83333 7.78532 7.99547 7.74993C6.94069 7.5195 6.15075 6.58059 6.15075 5.45667Z" fill="#F0F0F0"/>
<path d="M9.38425 6.52393L9.54316 7.01307H10.0575L9.64141 7.31541L9.80031 7.80455L9.38425 7.50225L8.96809 7.80455L9.12705 7.31541L8.71094 7.01307H9.22525L9.38425 6.52393Z" fill="#F0F0F0"/>
<path d="M11.0248 6.52393L11.1837 7.01307H11.698L11.2819 7.31541L11.4409 7.80455L11.0248 7.50225L10.6087 7.80455L10.7676 7.31541L10.3516 7.01307H10.8658L11.0248 6.52393Z" fill="#F0F0F0"/>
<path d="M12.6655 6.52393L12.8244 7.01307H13.3388L12.9227 7.31541L13.0816 7.80455L12.6655 7.50225L12.2493 7.80455L12.4083 7.31541L11.9922 7.01307H12.5065L12.6655 6.52393Z" fill="#F0F0F0"/>
<path d="M14.3061 6.52393L14.4651 7.01307H14.9793L14.5633 7.31541L14.7222 7.80455L14.3061 7.50225L13.89 7.80455L14.049 7.31541L13.6328 7.01307H14.1471L14.3061 6.52393Z" fill="#F0F0F0"/>
<path d="M15.9506 6.52393L16.1095 7.01307H16.6238L16.2078 7.31541L16.3667 7.80455L15.9506 7.50225L15.5345 7.80455L15.6934 7.31541L15.2773 7.01307H15.7916L15.9506 6.52393Z" fill="#F0F0F0"/>
<path d="M11.0248 4.81641L11.1837 5.3055H11.698L11.2819 5.60789L11.4409 6.09698L11.0248 5.79469L10.6087 6.09698L10.7676 5.60789L10.3516 5.3055H10.8658L11.0248 4.81641Z" fill="#F0F0F0"/>
<path d="M12.6655 4.81641L12.8244 5.3055H13.3388L12.9227 5.60789L13.0816 6.09698L12.6655 5.79469L12.2493 6.09698L12.4083 5.60789L11.9922 5.3055H12.5065L12.6655 4.81641Z" fill="#F0F0F0"/>
<path d="M14.3061 4.81641L14.4651 5.3055H14.9793L14.5633 5.60789L14.7222 6.09698L14.3061 5.79469L13.89 6.09698L14.049 5.60789L13.6328 5.3055H14.1471L14.3061 4.81641Z" fill="#F0F0F0"/>
<path d="M15.9506 4.81641L16.1095 5.3055H16.6238L16.2078 5.60789L16.3667 6.09698L15.9506 5.79469L15.5345 6.09698L15.6934 5.60789L15.2773 5.3055H15.7916L15.9506 4.81641Z" fill="#F0F0F0"/>
<path d="M12.6655 3.10889L12.8244 3.59807H13.3388L12.9227 3.90037L13.0816 4.38956L12.6655 4.08726L12.2493 4.38956L12.4083 3.90037L11.9922 3.59807H12.5065L12.6655 3.10889Z" fill="#F0F0F0"/>
<path d="M14.3061 3.10889L14.4651 3.59807H14.9793L14.5633 3.90037L14.7222 4.38956L14.3061 4.08726L13.89 4.38956L14.049 3.90037L13.6328 3.59807H14.1471L14.3061 3.10889Z" fill="#F0F0F0"/>
<path d="M15.9506 3.10889L16.1095 3.59807H16.6238L16.2078 3.90037L16.3667 4.38956L15.9506 4.08726L15.5345 4.38956L15.6934 3.90037L15.2773 3.59807H15.7916L15.9506 3.10889Z" fill="#F0F0F0"/>
</g>
<defs>
<clipPath id="clip0_3760_16579">
<rect width="24" height="24" fill="white" transform="translate(0.667969 0.5)"/>
</clipPath>
</defs>
</svg>
