<svg width="197" height="150" viewBox="0 0 197 150" fill="none" xmlns="http://www.w3.org/2000/svg">
<g clip-path="url(#clip0_349_2908)">
<path d="M6.35547 59.6476L30.7042 59.6478V107.185C30.7042 108.805 31.4524 109.614 32.9491 109.614H42.1014C43.5981 109.614 44.3464 108.747 44.3464 107.012V29.8066H17.2347L21.5518 6.38481H69.5585V114.125C69.5585 119.099 68.1195 123.349 65.2413 126.877C62.3632 130.405 58.1612 132.169 52.6353 132.169H22.9333C17.9829 132.169 13.9821 130.723 10.9316 127.831C7.88115 124.94 6.35547 121.007 6.35547 116.034V59.6476ZM79.9196 6.38464H128.617L132.934 29.8065H105.65V59.6476H126.372V81.3345H105.65V132.169H79.9196V6.38464ZM146.922 132.169L142.432 108.747H169.371C171.328 108.747 172.307 107.879 172.307 106.144V83.2429C172.307 81.508 171.962 80.467 171.271 80.12C170.58 79.773 169.371 79.5995 167.644 79.5995H154.693C152.851 79.5995 151.095 79.455 149.426 79.1658C147.756 78.8766 146.26 78.2116 144.936 77.1706C143.612 76.1296 142.576 74.6839 141.827 72.8332C141.079 70.9826 140.705 68.4958 140.705 65.3729V22.6932C140.705 17.7196 142.058 13.7582 144.763 10.8088C147.469 7.85935 151.757 6.38464 157.628 6.38464H192.165L196.483 29.8065H168.162C166.09 29.8065 165.054 30.7317 165.054 32.5824V55.4837C165.054 56.756 165.37 57.6234 166.004 58.0862C166.637 58.5489 167.587 58.7801 168.853 58.7801H184.567C188.597 58.7801 191.676 59.7344 193.806 61.6428C195.936 63.5512 197.001 66.8766 197.001 71.6188V113.084C197.001 120.024 195.59 124.94 192.77 127.831C189.949 130.722 184.97 132.169 177.832 132.169H146.922Z" fill="#000959"/>
<path d="M29.1083 148.33C29.1083 148.61 29.063 148.851 28.9726 149.053C28.8821 149.255 28.7499 149.422 28.5761 149.553C28.4023 149.683 28.1893 149.78 27.9372 149.842C27.685 149.904 27.3973 149.936 27.074 149.936C26.9216 149.936 26.765 149.928 26.6044 149.913C26.4437 149.897 26.2892 149.878 26.1408 149.856C25.9924 149.833 25.8556 149.809 25.7306 149.784C25.6055 149.758 25.5013 149.734 25.418 149.712V148.725C25.5034 148.76 25.5969 148.795 25.6986 148.831C25.8002 148.867 25.9136 148.899 26.0386 148.928C26.1637 148.956 26.3019 148.98 26.4534 148.998C26.6049 149.016 26.7721 149.026 26.9551 149.026C27.1523 149.026 27.3165 149.004 27.4476 148.96C27.5787 148.916 27.684 148.855 27.7632 148.776C27.8425 148.697 27.8985 148.605 27.931 148.499C27.9635 148.392 27.9798 148.276 27.9798 148.149V145.676H29.1082L29.1083 148.33ZM40.4709 147.785C40.4709 148.146 40.4048 148.465 40.2727 148.742C40.1405 149.019 39.9514 149.25 39.7054 149.436C39.4594 149.622 39.161 149.762 38.8103 149.857C38.4595 149.952 38.0656 150 37.6285 150C37.1913 150 36.7964 149.952 36.4436 149.857C36.0909 149.763 35.7904 149.622 35.5424 149.436C35.2944 149.25 35.1032 149.019 34.969 148.742C34.8349 148.465 34.7677 148.146 34.7677 147.785C34.7677 147.423 34.8348 147.104 34.969 146.827C35.1032 146.55 35.2944 146.319 35.5424 146.133C35.7904 145.947 36.0909 145.807 36.4436 145.712C36.7964 145.617 37.1913 145.569 37.6285 145.569C38.0656 145.569 38.4595 145.617 38.8103 145.712C39.161 145.807 39.4594 145.947 39.7054 146.133C39.9514 146.319 40.1405 146.55 40.2727 146.827C40.4048 147.104 40.4709 147.423 40.4709 147.785ZM39.3272 147.785C39.3272 147.627 39.3023 147.471 39.2525 147.314C39.2027 147.158 39.1143 147.018 38.9872 146.893C38.8601 146.768 38.6868 146.667 38.4672 146.59C38.2476 146.512 37.968 146.473 37.6285 146.473C37.4008 146.473 37.2005 146.491 37.0277 146.527C36.8549 146.563 36.7054 146.612 36.5794 146.675C36.4533 146.739 36.3476 146.813 36.2622 146.898C36.1768 146.982 36.1087 147.073 36.0579 147.17C36.007 147.267 35.971 147.368 35.9496 147.474C35.9283 147.579 35.9176 147.682 35.9176 147.785C35.9176 147.889 35.9283 147.994 35.9496 148.1C35.971 148.206 36.007 148.308 36.0579 148.405C36.1087 148.502 36.1768 148.593 36.2622 148.676C36.3476 148.76 36.4533 148.833 36.5794 148.895C36.7054 148.958 36.8549 149.007 37.0277 149.042C37.2005 149.078 37.4008 149.096 37.6285 149.096C37.968 149.096 38.2476 149.057 38.4672 148.98C38.6868 148.902 38.8601 148.801 38.9872 148.676C39.1143 148.552 39.2027 148.411 39.2525 148.255C39.3023 148.099 39.3272 147.942 39.3272 147.785ZM50.9396 148.725C50.9396 148.889 50.9183 149.031 50.8756 149.151C50.8329 149.272 50.7734 149.375 50.6971 149.462C50.6209 149.549 50.5294 149.619 50.4227 149.674C50.3159 149.728 50.198 149.771 50.0689 149.802C49.9398 149.834 49.802 149.856 49.6556 149.868C49.5093 149.88 49.3578 149.887 49.2012 149.887H46.1605V145.676H49.1463C49.2663 145.676 49.3867 145.682 49.5077 145.692C49.6287 145.702 49.7441 145.721 49.8539 145.748C49.9636 145.776 50.0658 145.814 50.1604 145.863C50.2549 145.912 50.3373 145.977 50.4074 146.056C50.4776 146.136 50.5324 146.232 50.5721 146.344C50.6117 146.457 50.6316 146.59 50.6316 146.743C50.6316 147.016 50.5645 147.234 50.4303 147.394C50.2961 147.554 50.0847 147.661 49.7959 147.714C49.9992 147.728 50.1736 147.76 50.3189 147.808C50.4643 147.856 50.5828 147.921 50.6742 148.004C50.7657 148.086 50.8328 148.187 50.8755 148.307C50.9182 148.426 50.9396 148.566 50.9396 148.725ZM49.5277 146.924C49.5277 146.87 49.5195 146.82 49.5033 146.772C49.487 146.724 49.4575 146.681 49.4148 146.645C49.3721 146.608 49.3142 146.578 49.241 146.556C49.1678 146.533 49.0743 146.522 48.9604 146.522H47.2922V147.313H48.9604C49.0743 147.313 49.1678 147.302 49.241 147.282C49.3142 147.262 49.3721 147.234 49.4148 147.199C49.4575 147.165 49.487 147.123 49.5033 147.075C49.5195 147.027 49.5277 146.977 49.5277 146.924ZM49.79 148.594C49.79 148.498 49.7738 148.42 49.7412 148.362C49.7087 148.304 49.6579 148.259 49.5887 148.227C49.5196 148.196 49.4301 148.175 49.3203 148.165C49.2105 148.154 49.0794 148.149 48.9269 148.149H47.2922V149.041H48.9269C49.0794 149.041 49.2105 149.036 49.3203 149.026C49.4301 149.015 49.5196 148.994 49.5887 148.961C49.6579 148.929 49.7087 148.883 49.7412 148.825C49.7738 148.767 49.79 148.69 49.79 148.594ZM64.7683 146.574V147.306H67.4918V148.204H64.7683V149.886H63.6368V145.676H67.6411V146.574L64.7683 146.574ZM78.6896 147.785C78.6896 148.146 78.6235 148.465 78.4913 148.742C78.3591 149.019 78.1701 149.25 77.924 149.436C77.678 149.622 77.3796 149.762 77.0289 149.857C76.6782 149.952 76.2842 150 75.8471 150C75.41 150 75.015 149.952 74.6623 149.857C74.3095 149.763 74.0091 149.622 73.761 149.436C73.513 149.25 73.3219 149.019 73.1877 148.742C73.0535 148.465 72.9864 148.146 72.9864 147.785C72.9864 147.423 73.0535 147.104 73.1877 146.827C73.3219 146.55 73.513 146.319 73.761 146.133C74.0091 145.947 74.3095 145.807 74.6623 145.712C75.015 145.617 75.41 145.569 75.8471 145.569C76.2842 145.569 76.6782 145.617 77.0289 145.712C77.3797 145.807 77.678 145.947 77.924 146.133C78.1701 146.319 78.3592 146.55 78.4913 146.827C78.6234 147.104 78.6896 147.423 78.6896 147.785ZM77.5459 147.785C77.5459 147.627 77.521 147.471 77.4712 147.314C77.4214 147.158 77.3329 147.018 77.2058 146.893C77.0788 146.768 76.9054 146.667 76.6859 146.59C76.4663 146.512 76.1867 146.473 75.8472 146.473C75.6194 146.473 75.4192 146.491 75.2464 146.527C75.0735 146.563 74.9241 146.612 74.798 146.675C74.672 146.739 74.5663 146.813 74.4809 146.898C74.3955 146.982 74.3274 147.073 74.2765 147.17C74.2257 147.267 74.1896 147.368 74.1683 147.474C74.1469 147.579 74.1362 147.682 74.1362 147.785C74.1362 147.889 74.1469 147.994 74.1683 148.1C74.1896 148.206 74.2257 148.308 74.2765 148.405C74.3274 148.502 74.3955 148.593 74.4809 148.676C74.5663 148.76 74.672 148.833 74.798 148.895C74.9241 148.958 75.0736 149.007 75.2464 149.042C75.4192 149.078 75.6194 149.096 75.8472 149.096C76.1867 149.096 76.4663 149.057 76.6859 148.98C76.9054 148.902 77.0788 148.801 77.2058 148.676C77.3329 148.552 77.4214 148.411 77.4712 148.255C77.521 148.099 77.5459 147.942 77.5459 147.785ZM85.5108 149.887H84.3793V145.676H87.2156C87.5206 145.676 87.7793 145.708 87.9918 145.771C88.2043 145.835 88.3771 145.925 88.5103 146.041C88.6435 146.158 88.7401 146.298 88.8001 146.462C88.86 146.627 88.89 146.81 88.89 147.012C88.89 147.19 88.8651 147.345 88.8153 147.478C88.7655 147.611 88.6984 147.725 88.614 147.82C88.5296 147.915 88.4315 147.995 88.3197 148.06C88.2079 148.126 88.09 148.18 87.9659 148.223L89.3384 149.887H88.0147L86.746 148.336H85.5108L85.5108 149.887ZM87.7463 147.006C87.7463 146.925 87.7357 146.855 87.7143 146.798C87.693 146.741 87.6559 146.694 87.603 146.659C87.5501 146.623 87.4795 146.597 87.391 146.58C87.3026 146.564 87.1923 146.556 87.0601 146.556H85.5108V147.457H87.0601C87.1923 147.457 87.3026 147.449 87.391 147.432C87.4795 147.416 87.5501 147.39 87.603 147.354C87.6559 147.318 87.693 147.272 87.7143 147.215C87.7357 147.157 87.7463 147.088 87.7463 147.006ZM105.677 146.862C105.598 146.823 105.493 146.78 105.363 146.731C105.233 146.681 105.085 146.635 104.921 146.591C104.756 146.547 104.577 146.51 104.384 146.481C104.191 146.451 103.992 146.436 103.789 146.436C103.626 146.436 103.488 146.441 103.373 146.452C103.258 146.462 103.161 146.475 103.083 146.491C103.005 146.508 102.943 146.527 102.897 146.548C102.851 146.57 102.816 146.592 102.792 146.614C102.767 146.637 102.752 146.659 102.744 146.681C102.737 146.704 102.734 146.724 102.734 146.743C102.734 146.804 102.764 146.858 102.825 146.904C102.886 146.95 102.97 146.99 103.075 147.026C103.181 147.062 103.304 147.096 103.444 147.127C103.585 147.159 103.734 147.192 103.891 147.225C104.049 147.259 104.211 147.296 104.379 147.336C104.547 147.375 104.71 147.422 104.867 147.475C105.025 147.528 105.174 147.59 105.314 147.66C105.454 147.731 105.577 147.813 105.683 147.907C105.789 148.001 105.872 148.109 105.933 148.232C105.994 148.355 106.025 148.494 106.025 148.652C106.025 148.854 105.989 149.028 105.918 149.173C105.847 149.318 105.752 149.44 105.633 149.54C105.514 149.64 105.376 149.721 105.219 149.781C105.063 149.841 104.899 149.888 104.727 149.92C104.555 149.953 104.381 149.974 104.205 149.985C104.029 149.995 103.862 150 103.704 150C103.289 150 102.905 149.966 102.552 149.897C102.2 149.829 101.888 149.744 101.618 149.641V148.636C101.896 148.792 102.214 148.913 102.571 149.001C102.928 149.089 103.309 149.133 103.716 149.133C103.956 149.133 104.151 149.12 104.303 149.095C104.454 149.069 104.573 149.036 104.658 148.996C104.744 148.957 104.802 148.913 104.832 148.866C104.863 148.819 104.878 148.774 104.878 148.731C104.878 148.664 104.847 148.605 104.786 148.555C104.725 148.505 104.642 148.461 104.536 148.423C104.431 148.386 104.308 148.351 104.167 148.319C104.027 148.288 103.878 148.256 103.72 148.224C103.563 148.193 103.401 148.158 103.234 148.122C103.067 148.085 102.905 148.041 102.748 147.991C102.59 147.941 102.441 147.883 102.301 147.817C102.16 147.75 102.037 147.672 101.932 147.581C101.826 147.49 101.743 147.385 101.682 147.265C101.621 147.146 101.59 147.007 101.59 146.85C101.59 146.664 101.623 146.504 101.688 146.369C101.753 146.234 101.841 146.119 101.952 146.024C102.062 145.929 102.19 145.852 102.336 145.793C102.481 145.734 102.634 145.688 102.795 145.655C102.955 145.622 103.118 145.6 103.283 145.588C103.448 145.575 103.604 145.569 103.753 145.569C103.915 145.569 104.082 145.577 104.254 145.594C104.426 145.61 104.595 145.633 104.762 145.663C104.929 145.692 105.09 145.727 105.245 145.765C105.401 145.804 105.545 145.845 105.677 145.888L105.677 146.862ZM114.102 146.593V149.887H112.971V146.593H111.193V145.676H115.884V146.593H114.102ZM126.236 148.468C126.236 148.678 126.184 148.876 126.081 149.062C125.977 149.248 125.821 149.411 125.614 149.549C125.407 149.688 125.148 149.798 124.838 149.879C124.528 149.96 124.165 150 123.751 150C123.336 150 122.972 149.96 122.66 149.879C122.348 149.798 122.088 149.688 121.881 149.549C121.674 149.411 121.518 149.248 121.415 149.062C121.311 148.876 121.259 148.678 121.259 148.468V145.676H122.387V148.06C122.387 148.201 122.405 148.335 122.441 148.46C122.476 148.586 122.543 148.696 122.642 148.79C122.741 148.884 122.879 148.958 123.057 149.013C123.235 149.068 123.466 149.096 123.751 149.096C124.033 149.096 124.263 149.068 124.44 149.013C124.617 148.958 124.755 148.884 124.853 148.79C124.952 148.696 125.018 148.586 125.053 148.46C125.087 148.335 125.105 148.201 125.105 148.06V145.676H126.236L126.236 148.468ZM137.309 147.778C137.309 148.048 137.28 148.288 137.221 148.497C137.162 148.706 137.079 148.889 136.972 149.044C136.865 149.199 136.737 149.331 136.588 149.439C136.438 149.547 136.272 149.634 136.089 149.7C135.906 149.765 135.709 149.813 135.497 149.842C135.286 149.872 135.065 149.887 134.836 149.887H132.176V145.676H134.83C135.059 145.676 135.28 145.691 135.491 145.721C135.703 145.75 135.901 145.798 136.085 145.863C136.269 145.929 136.436 146.015 136.586 146.122C136.737 146.23 136.865 146.361 136.972 146.518C137.079 146.674 137.162 146.856 137.221 147.065C137.28 147.273 137.309 147.511 137.309 147.778ZM136.169 147.778C136.169 147.576 136.143 147.401 136.091 147.251C136.039 147.102 135.956 146.979 135.841 146.882C135.726 146.785 135.576 146.713 135.391 146.665C135.206 146.617 134.98 146.593 134.714 146.593H133.308V148.97H134.714C134.98 148.97 135.206 148.946 135.391 148.898C135.576 148.85 135.726 148.777 135.841 148.678C135.956 148.579 136.039 148.455 136.091 148.305C136.143 148.156 136.169 147.981 136.169 147.778ZM142.999 149.887V145.676H147.241V146.574H144.161V147.27H147.083V148.168H144.161V148.989H147.284V149.887L142.999 149.887ZM156.993 149.887L154.166 146.994V149.887H153.035V145.676H154.264L157.094 148.581V145.676H158.219V149.887H156.993ZM166.538 146.593V149.887H165.407V146.593H163.629V145.676H168.319V146.593H166.538ZM177.586 146.862C177.507 146.823 177.402 146.78 177.272 146.731C177.142 146.681 176.995 146.635 176.83 146.591C176.665 146.547 176.486 146.51 176.293 146.481C176.1 146.451 175.902 146.436 175.699 146.436C175.536 146.436 175.397 146.441 175.282 146.452C175.167 146.462 175.071 146.475 174.993 146.491C174.914 146.508 174.852 146.527 174.806 146.548C174.761 146.57 174.726 146.592 174.701 146.614C174.677 146.637 174.661 146.659 174.654 146.681C174.647 146.704 174.643 146.724 174.643 146.743C174.643 146.804 174.674 146.858 174.735 146.904C174.796 146.95 174.879 146.99 174.985 147.026C175.091 147.062 175.214 147.096 175.354 147.127C175.494 147.159 175.643 147.192 175.801 147.225C175.958 147.259 176.121 147.296 176.289 147.336C176.456 147.375 176.619 147.422 176.777 147.475C176.934 147.528 177.083 147.59 177.223 147.66C177.364 147.731 177.487 147.813 177.593 147.907C177.698 148.001 177.782 148.109 177.843 148.232C177.904 148.355 177.934 148.494 177.934 148.652C177.934 148.854 177.899 149.028 177.827 149.173C177.756 149.318 177.661 149.44 177.542 149.54C177.423 149.64 177.285 149.721 177.129 149.781C176.972 149.841 176.808 149.888 176.636 149.92C176.465 149.953 176.291 149.974 176.115 149.985C175.939 149.995 175.772 150 175.613 150C175.198 150 174.815 149.966 174.462 149.897C174.109 149.829 173.798 149.744 173.527 149.641V148.636C173.806 148.792 174.123 148.913 174.48 149.001C174.837 149.089 175.219 149.133 175.625 149.133C175.865 149.133 176.061 149.12 176.213 149.095C176.364 149.069 176.482 149.036 176.568 148.996C176.653 148.957 176.711 148.913 176.742 148.866C176.772 148.819 176.787 148.774 176.787 148.731C176.787 148.664 176.757 148.605 176.696 148.555C176.635 148.505 176.552 148.461 176.446 148.423C176.34 148.386 176.217 148.351 176.077 148.319C175.937 148.288 175.788 148.256 175.63 148.224C175.472 148.193 175.31 148.158 175.144 148.122C174.977 148.085 174.815 148.041 174.657 147.991C174.5 147.941 174.351 147.883 174.21 147.817C174.07 147.75 173.947 147.672 173.841 147.581C173.736 147.49 173.652 147.385 173.591 147.265C173.53 147.146 173.5 147.007 173.5 146.85C173.5 146.664 173.532 146.504 173.597 146.369C173.662 146.234 173.75 146.119 173.861 146.024C173.972 145.929 174.1 145.852 174.245 145.793C174.391 145.734 174.544 145.688 174.704 145.655C174.865 145.622 175.028 145.6 175.192 145.588C175.357 145.575 175.514 145.569 175.662 145.569C175.825 145.569 175.992 145.577 176.164 145.594C176.336 145.61 176.505 145.633 176.672 145.663C176.838 145.692 176.999 145.727 177.155 145.765C177.31 145.804 177.454 145.845 177.586 145.888L177.586 146.862Z" fill="#000959"/>
</g>
<defs>
<clipPath id="clip0_349_2908">
<rect width="197" height="150" fill="white"/>
</clipPath>
</defs>
</svg>
